<svg
        xmlns="http://www.w3.org/2000/svg"
        width="0.236in" height="0.236in">
    <path fill-rule="evenodd" fill="rgb(178, 185, 189)"
          d="M15.728,14.309 L11.786,10.388 C12.600,9.303 13.088,7.963 13.088,6.504 C13.088,2.908 10.157,-0.006 6.541,-0.006 C2.926,-0.006 -0.005,2.908 -0.005,6.504 C-0.005,10.100 2.926,13.014 6.541,13.014 C7.963,13.014 9.275,12.558 10.349,11.793 L14.304,15.726 C14.697,16.117 15.335,16.117 15.728,15.726 C16.121,15.335 16.121,14.700 15.728,14.309 ZM6.541,11.011 C4.038,11.011 2.009,8.994 2.009,6.504 C2.009,4.015 4.038,1.996 6.541,1.996 C9.044,1.996 11.073,4.015 11.073,6.504 C11.073,8.994 9.044,11.011 6.541,11.011 Z"/>
</svg>